<svg xmlns="http://www.w3.org/2000/svg" width="33" height="33" viewBox="0 0 33 33">
  <g id="instagram-azul" transform="translate(-1071 -2955)">
    <g id="Group_280" data-name="Group 280" transform="translate(30 2880)">
      <path id="instagram" d="M29.906,23.1A6.8,6.8,0,0,1,23.1,29.906H9.9A6.867,6.867,0,0,1,3.094,23.1V9.9A6.867,6.867,0,0,1,9.9,3.094H23A6.889,6.889,0,0,1,29.906,9.9ZM33,9.9A9.9,9.9,0,0,0,23.1,0H9.9A9.9,9.9,0,0,0,0,9.9V23A9.925,9.925,0,0,0,9.9,33H23a9.9,9.9,0,0,0,9.9-9.9V9.9ZM16.6,21.966a5.259,5.259,0,1,1,5.259-5.259A5.421,5.421,0,0,1,16.6,21.966Zm0-13.406a8.147,8.147,0,1,0,8.147,8.147A8.1,8.1,0,0,0,16.6,8.559Zm8.559-2.475A1.958,1.958,0,0,0,23.2,8.044,1.9,1.9,0,0,0,25.163,10h0a1.958,1.958,0,0,0,1.959-1.959A1.9,1.9,0,0,0,25.163,6.084Z" transform="translate(1041 75)" fill="#01c8c8"/>
    </g>
  </g>
</svg>
