<svg xmlns="http://www.w3.org/2000/svg" width="193" height="192.145" viewBox="0 0 193 192.145">
  <g id="logo" transform="translate(-1915.809 -1914.72)">
    <g id="Camada_3" transform="translate(1915.809 2075.063)">
      <g id="Group">
        <text id="Grupo_de_Proteção_aos_Animais_" data-name="Grupo de Proteção aos Animais " transform="translate(0 13)" fill="#fff" font-size="13" font-family="FuturaBT-Medium, Futura Md BT" font-weight="500"><tspan x="0" y="0">Grupo de Proteção aos Animais </tspan></text>
        <text id="do_Vale_do_Ribeira" data-name="do Vale do Ribeira" transform="translate(41.89 28.802)" fill="#fff" font-size="13" font-family="FuturaBT-Medium, Futura Md BT" font-weight="500"><tspan x="0" y="0">do Vale do Ribeira</tspan></text>
      </g>
    </g>
    <g id="Camada_2" transform="translate(1943.251 1914.72)">
      <g id="Group_52" data-name="Group 52" transform="translate(3.03)">
        <path id="Path_6" data-name="Path 6" d="M2073.633,1980.226a65.5,65.5,0,0,1-55.358,64.74h0a65.821,65.821,0,0,1-17.148.418,65.519,65.519,0,1,1,72.507-65.158Z" transform="translate(-1942.61 -1914.72)" fill="#36f566"/>
      </g>
      <g id="Group_53" data-name="Group 53" transform="translate(95.53 23.768)">
        <path id="Path_7" data-name="Path 7" d="M2064.205,1962.915c.058.232.128.464.186.708,2.81,11.308-3.866,21.677-9.126,22.605-10.31-.186-32.753-43.435-32.753-43.435l-.232-.871a10.736,10.736,0,0,1,12.783-6.258c5.759,2.148,7.721,8.429,12.678,10.5C2051.213,1947.6,2060.885,1950.945,2064.205,1962.915Z" transform="translate(-2022.28 -1935.192)" fill="#bd6825"/>
      </g>
      <g id="Group_54" data-name="Group 54" transform="translate(94.518 22.584)">
        <path id="Path_8" data-name="Path 8" d="M2054.674,1987.136c-13.189-3.309-32.753-43.435-32.753-43.435a1.356,1.356,0,0,1-.279-.929,1.419,1.419,0,0,1-.174-1.184c1.742-5.341,8.789-8.812,13.968-6.873,3.286,1.231,5.457,3.715,7.373,5.921,1.66,1.9,3.228,3.7,5.341,4.586q.261.1.592.244c4.087,1.66,13.642,5.538,16.765,18.1a21.789,21.789,0,0,1-1.567,15.314C2062.082,1982.527,2056.857,1987.682,2054.674,1987.136Zm-31.2-44.8s23.174,42.6,32.1,42.587c1.8.174,10.682-10.043,7.977-20.887-2.8-11.25-11.576-14.815-15.326-16.336-.22-.093-.418-.174-.6-.244-2.589-1.08-4.412-3.17-6.177-5.19-1.9-2.183-3.7-4.249-6.467-5.283C2030.919,1935.447,2025.021,1938.245,2023.477,1942.332Z" transform="translate(-2021.408 -1934.172)" fill="#494949"/>
      </g>
      <path id="Path_9" data-name="Path 9" d="M2051.728,1981.351c-3.088-.952-4.319-2.473-6.432-4.6-1.6-1.6-.766-3.878-.778-6.467-.012-3.564-.023-7.593-2.3-11.75a1.684,1.684,0,0,1,2.949-1.625c2.694,4.911,2.705,9.6,2.717,13.364,0,2.322.011,4.342.627,5.805.418.975,1.266,2.206,4.157,2.984a1.183,1.183,0,0,0,.836-.2,7.47,7.47,0,0,0,2.345-2.705,24.278,24.278,0,0,0,2.287-5.782c.244-.894,2.38-2.45,2.171-1.556a6.714,6.714,0,0,1-.476,1.753C2056.222,1979.157,2053.04,1981.757,2051.728,1981.351Z" transform="translate(-1923.573 -1908.066)" fill="#000072" opacity="0.2"/>
      <text id="GPAVR" transform="translate(-13.088 160.031)" fill="#ff6100" font-size="46" font-family="FuturaBT-Bold, Futura Md BT" font-weight="700"><tspan x="0" y="0">GPAVR</tspan></text>
      <g id="Group_55" data-name="Group 55" transform="translate(49.738 30.473)">
        <path id="Path_10" data-name="Path 10" d="M2006.2,1942.933l-1.161,57.019a17.762,17.762,0,0,1-8.626-.186c-4.6-1.254-9.219-4.493-11.785-10.949-4.76-11.982,1.266-21.746,3.263-25.392,2.786-5.109.731-11.39,4.11-17.149a11.6,11.6,0,0,1,11.332-5.167,6.7,6.7,0,0,1,2.554.987Z" transform="translate(-1982.839 -1940.967)" fill="#bd6825"/>
      </g>
      <g id="Group_56" data-name="Group 56" transform="translate(48.727 29.249)">
        <path id="Path_11" data-name="Path 11" d="M2002.242,2001.77a18.436,18.436,0,0,1-18.379-12.272c-4.76-11.993.673-21.793,2.984-25.972.116-.22.232-.418.337-.6,1.2-2.183,1.4-4.691,1.637-7.349.267-3.065.569-6.548,2.5-9.834,3.03-5.167,10.7-7.466,15.2-4.54a1.292,1.292,0,0,1,.546,1.045,1.351,1.351,0,0,1,.313.917l-1.161,57.019a1.138,1.138,0,0,1-.8,1.138A18.11,18.11,0,0,1,2002.242,2001.77Zm-.824-59.4a10.753,10.753,0,0,0-8.441,4.8c-1.625,2.775-1.881,5.654-2.136,8.7-.244,2.821-.5,5.747-1.95,8.417-.1.186-.221.395-.337.615-2.125,3.843-7.117,12.841-2.856,23.581a16.434,16.434,0,0,0,18.5,10.612l1.138-55.9A7.269,7.269,0,0,0,2001.418,1942.371Z" transform="translate(-1981.969 -1939.912)" fill="#494949"/>
      </g>
      <g id="Group_57" data-name="Group 57" transform="translate(61.653 75.746)">
        <path id="Path_12" data-name="Path 12" d="M2060.1,1994.868a81.329,81.329,0,0,1-9.637,15.709,65.689,65.689,0,0,1-23.209,17.857c-.139.07-.279.128-.418.186-.046.023-.081.035-.128.058a64.265,64.265,0,0,1-13.1,4.273c-.3.07-.615.128-.929.186-.348.07-.708.139-1.057.2-.5.093-1.01.174-1.521.255h0c-.209-.012-10.322-.592-14.583-6.5a14.406,14.406,0,0,1-2.09-6.026,38,38,0,0,1,10.182-30.884,37.49,37.49,0,0,1,5.526-4.7l32.045-5.515a15.862,15.862,0,0,1,6.444,2.148C2051.941,1984.569,2055.715,1986.148,2060.1,1994.868Z" transform="translate(-1993.101 -1979.96)" fill="#bd6825"/>
      </g>
      <g id="Group_58" data-name="Group 58" transform="translate(79.392 94.183)">
        <path id="Path_13" data-name="Path 13" d="M2048.018,2008.019a65.438,65.438,0,0,1-37.769,22.571,27.781,27.781,0,0,1-1.869-10.124c0-13.607,9.532-24.625,21.282-24.625C2037.476,1995.852,2044.314,2000.74,2048.018,2008.019Z" transform="translate(-2008.38 -1995.84)" fill="#f2d4d4"/>
      </g>
      <g id="Group_59" data-name="Group 59" transform="translate(60.707 74.824)">
        <path id="Path_14" data-name="Path 14" d="M2010.252,2034.7h-.058c-.441-.023-10.821-.673-15.314-6.9-2.241-3.112-3.146-9.637-2.252-16.255a39.121,39.121,0,0,1,10.438-21.874,37.84,37.84,0,0,1,5.666-4.818.936.936,0,0,1,.383-.163l32.045-5.515a.9.9,0,0,1,.395.011,64.616,64.616,0,0,1,6.351,2.1c3.646,1.382,8.894,4.807,13.178,13.271a.974.974,0,0,1,.046.766c-1.892,5.144-6.862,12.446-9.788,15.988a66.653,66.653,0,0,1-38.326,22.907c-.836.163-1.7.313-2.624.465C2010.356,2034.691,2010.3,2034.7,2010.252,2034.7Zm-.592-48.171a35.662,35.662,0,0,0-5.2,4.458,37.276,37.276,0,0,0-9.927,20.806c-.952,7.082.325,12.678,1.916,14.885,3.8,5.26,12.678,6.026,13.77,6.107.859-.139,1.66-.279,2.45-.429a64.68,64.68,0,0,0,37.223-22.246c2.682-3.251,7.419-10.182,9.323-15.047-3.971-7.651-8.685-10.728-11.959-11.97-3.123-1.184-5.318-1.812-5.956-1.985Z" transform="translate(-1992.287 -1979.166)" fill="#494949"/>
      </g>
      <g id="Group_60" data-name="Group 60" transform="translate(70.069 117.415)">
        <path id="Path_15" data-name="Path 15" d="M2024.3,2030.8c-3.506,3.437-10.786,2.972-13.816-3.216a13.339,13.339,0,0,1-1.149-3.7h0q-.087-.54-.139-1.115l-8.847-5.016s.418-.128,1.138-.325c4.389-1.173,20.2-4.644,24.033,4.969.058.151.116.313.174.476h0C2026.88,2026.334,2026.067,2029.063,2024.3,2030.8Z" transform="translate(-2000.35 -2015.849)" fill="#bd6825"/>
      </g>
      <g id="Group_61" data-name="Group 61" transform="translate(61.999 116.441)" opacity="0.2">
        <path id="Path_16" data-name="Path 16" d="M2011.594,2027.712c-.5.093-1.01.174-1.521.256h0c-.209-.012-10.322-.592-14.583-6.5a14.4,14.4,0,0,1-2.09-6.026,3.918,3.918,0,0,1,.1-.43s4.133,10.31,16.939,9h0a17.634,17.634,0,0,0,3.135,3.321,10.5,10.5,0,0,0,7.744,2.659c5.248-.6,5.434-5.329,5.352-6.931a4.575,4.575,0,0,0-.047-.534l.592.279c-.139.07-.279.128-.418.186C2030.356,2033.366,2016.168,2037.035,2011.594,2027.712Z" transform="translate(-1993.4 -2015.01)" fill="#494949"/>
      </g>
      <g id="Group_62" data-name="Group 62" transform="translate(69.927 116.358)">
        <path id="Path_17" data-name="Path 17" d="M2000.312,2017.738a25.112,25.112,0,0,1,3.448-1.37c.592-.186,1.184-.36,1.788-.511s1.208-.29,1.811-.406a30.385,30.385,0,0,1,3.715-.476,25.633,25.633,0,0,1,3.773.081,23.6,23.6,0,0,1,3.773.662,13.778,13.778,0,0,1,3.611,1.509,10.069,10.069,0,0,1,4.633,6.3,9.518,9.518,0,0,1,.244,4.017,7.494,7.494,0,0,1-1.765,3.75,8.308,8.308,0,0,1-3.437,2.276,9.535,9.535,0,0,1-4.029.511,9.7,9.7,0,0,1-6.92-3.832,10.192,10.192,0,0,1-1.765-3.53c-.07-.313-.139-.639-.2-.952s-.058-.639-.081-.964l-.012-.476c.012-.163.023-.325.035-.476.035-.325.07-.639.128-.952a.14.14,0,0,1,.174-.116.153.153,0,0,1,.1.081v.011c.546,1.161.906,2.264,1.417,3.286a13.48,13.48,0,0,0,1.73,2.844,8.4,8.4,0,0,0,2.5,2.032,8.139,8.139,0,0,0,3.065.906,7.62,7.62,0,0,0,3.158-.348,6.243,6.243,0,0,0,2.636-1.649,5.454,5.454,0,0,0,1.347-2.74,7.523,7.523,0,0,0-.186-3.2,8.477,8.477,0,0,0-1.37-2.972,8.357,8.357,0,0,0-2.4-2.195,14.306,14.306,0,0,0-6.537-1.823c-1.173-.07-2.345-.058-3.53-.011s-2.368.1-3.564.209c-2.38.186-4.783.488-7.21.778h0a.145.145,0,0,1-.163-.128C2000.219,2017.831,2000.253,2017.773,2000.312,2017.738Z" transform="translate(-2000.228 -2014.939)" fill="#494949"/>
      </g>
      <g id="Group_63" data-name="Group 63" transform="translate(105.32 98.626)">
        <path id="Path_18" data-name="Path 18" d="M2048.067,2002.608a31.519,31.519,0,0,1-3.75,4.923s3.971,14.722-5.828,16.626a5.411,5.411,0,0,1-3.669-.464c-3.715-1.974-4.865-8.6-3.634-14.327.128-.569.267-1.138.441-1.7h0c.906-2.914,2.485-5.422,4.691-6.7,5.573-3.216,10.716.429,11.715,1.208l.174.139A1.9,1.9,0,0,1,2048.067,2002.608Z" transform="translate(-2030.712 -1999.666)" fill="#bd6825"/>
      </g>
      <g id="Group_64" data-name="Group 64" transform="translate(105.328 101.138)" opacity="0.2">
        <path id="Path_19" data-name="Path 19" d="M2044.316,2007.182s3.971,14.722-5.828,16.626c-6.56,1.277-8.87-7.477-7.291-14.792l.441-1.683c-.116.488-3.274,14.687,5.387,13.2,8.812-1.51,5.84-16.127,5.84-16.127,1.289.058,3.518-1.358,5.19-2.577l.174.139A29.788,29.788,0,0,1,2044.316,2007.182Z" transform="translate(-2030.719 -2001.83)" fill="#494949"/>
      </g>
      <g id="Group_65" data-name="Group 65" transform="translate(104.356 97.685)">
        <path id="Path_20" data-name="Path 20" d="M2037.38,2025.379c-2.891,0-5.213-1.846-6.479-5.236-2.357-6.3-.615-16.58,5.085-19.865,6.734-3.878,12.934,1.4,12.992,1.463a.941.941,0,0,1,.209,1.173,30.008,30.008,0,0,1-3.7,5.016c.453,1.962,1.788,8.975-1.057,13.538a8.211,8.211,0,0,1-5.631,3.773A7.4,7.4,0,0,1,2037.38,2025.379Zm3.878-24.637a8.437,8.437,0,0,0-4.308,1.184c-4.7,2.717-6.3,12.075-4.249,17.543.8,2.125,2.438,4.528,5.747,3.889a6.262,6.262,0,0,0,4.377-2.914c2.822-4.528.732-12.458.708-12.539a1,1,0,0,1,.209-.894,32.565,32.565,0,0,0,3.355-4.331A10.712,10.712,0,0,0,2041.258,2000.741Z" transform="translate(-2029.882 -1998.856)" fill="#494949"/>
      </g>
      <g id="Group_66" data-name="Group 66" transform="translate(116.928 102.566)">
        <path id="Path_21" data-name="Path 21" d="M2041.72,2007.449c-.047-.36-.1-.731-.174-1.1s-.139-.743-.22-1.1a16.541,16.541,0,0,0-.615-2.183,14.619,14.619,0,0,1,1.486,1.788c.232.313.453.639.673.964s.429.65.65,1l.012.012a.98.98,0,1,1-1.672,1.022A.9.9,0,0,1,2041.72,2007.449Z" transform="translate(-2040.71 -2003.06)" fill="#494949"/>
      </g>
      <g id="Group_67" data-name="Group 67" transform="translate(56.073 30.744)" opacity="0.2">
        <path id="Path_22" data-name="Path 22" d="M2006.2,1942.756l-3.762,44.654a19.717,19.717,0,0,1-8.116-.488,15.677,15.677,0,0,1-3.692-4.447,20.015,20.015,0,0,1-2.194-11.993,49.43,49.43,0,0,1,2.113-8.835l1.323-4.319c.546-1.776,1.091-3.541,1.637-5.317a22.078,22.078,0,0,1,1.556-4.064,14.268,14.268,0,0,1,5.654-5.387,26.147,26.147,0,0,1,2.879-1.359,6.977,6.977,0,0,1,2.357.871Z" transform="translate(-1988.296 -1941.2)" fill="#494949"/>
      </g>
      <g id="Group_68" data-name="Group 68" transform="translate(57.626 24.356)">
        <path id="Path_23" data-name="Path 23" d="M2053.835,1974.1c-.72,19.366-26.542,23.674-26.542,23.674s-28.457,4.783-35.806-14.838c-5.352-14.269,2.508-22.095,3.286-27.006s5.817-17.381,21.526-19.842a27.92,27.92,0,0,1,10.728.279,25.019,25.019,0,0,1,16.533,13.12c1.788,3.878,8.5,8.011,10.008,18.739A34.708,34.708,0,0,1,2053.835,1974.1Z" transform="translate(-1989.633 -1935.698)" fill="#bd6825"/>
      </g>
      <g id="Group_69" data-name="Group 69" transform="translate(57.814 58.911)" opacity="0.2">
        <path id="Path_24" data-name="Path 24" d="M2053.995,1969.686c-.72,19.366-26.541,23.674-26.541,23.674s-28.457,4.783-35.806-14.838a25.553,25.553,0,0,1-1.591-13.062,28.16,28.16,0,0,0,1.777,7.709c7.349,19.622,35.806,14.838,35.806,14.838s23.79-3.959,26.332-21.409C2054.03,1967.573,2054.03,1968.606,2053.995,1969.686Z" transform="translate(-1989.795 -1965.46)" fill="#494949"/>
      </g>
      <g id="Group_70" data-name="Group 70" transform="translate(56.671 23.485)">
        <path id="Path_25" data-name="Path 25" d="M2020.019,1999.353a51.924,51.924,0,0,1-7.9-.592c-10.867-1.7-18.275-7.024-21.409-15.384-4.087-10.914-.662-18.333,1.614-23.232a19.272,19.272,0,0,0,1.625-4.261c.964-6.072,6.862-18.031,22.315-20.458a29.1,29.1,0,0,1,11.088.1,26,26,0,0,1,17.183,13.642,18.394,18.394,0,0,0,2.6,3.587c2.705,3.24,6.4,7.686,7.489,15.407a35.487,35.487,0,0,1,.29,6.061h0c-.3,8.278-5.167,15.163-14.049,19.912a47.58,47.58,0,0,1-13.294,4.667A46.287,46.287,0,0,1,2020.019,1999.353Zm1.208-62.592a30.5,30.5,0,0,0-4.644.372c-14.362,2.252-19.842,13.445-20.724,19.053a19.23,19.23,0,0,1-1.777,4.76c-2.264,4.888-5.364,11.6-1.556,21.758,2.914,7.791,9.614,12.551,19.912,14.165a52.109,52.109,0,0,0,14.838.058,46.955,46.955,0,0,0,12.748-4.493c8.336-4.47,12.713-10.612,12.992-18.263h0a32.722,32.722,0,0,0-.267-5.724c-1.01-7.187-4.365-11.216-7.059-14.455a19.394,19.394,0,0,1-2.856-4.017,24.234,24.234,0,0,0-15.883-12.585A25.8,25.8,0,0,0,2021.226,1936.762Zm32.741,37.455Z" transform="translate(-1988.81 -1934.948)" fill="#494949"/>
      </g>
      <g id="Group_71" data-name="Group 71" transform="translate(85.791 56.426)">
        <path id="Path_26" data-name="Path 26" d="M2014.679,1964.435l7.083-1.1a.937.937,0,0,1,.929,1.44l-3,4.54a.935.935,0,0,1-1.382.2l-4.087-3.437A.934.934,0,0,1,2014.679,1964.435Z" transform="translate(-2013.891 -1963.319)" fill="#494949"/>
      </g>
      <g id="Group_74" data-name="Group 74" transform="translate(70.611 58.129)">
        <g id="Group_72" data-name="Group 72" transform="translate(0 3.065)">
          <path id="Path_27" data-name="Path 27" d="M2021.115,1967.547a7.211,7.211,0,0,1,.639,4.18,9.2,9.2,0,0,1-1.6,4.063,10.043,10.043,0,0,1-3.274,2.938,12.76,12.76,0,0,1-4.133,1.475,11.654,11.654,0,0,1-4.389-.116,10.3,10.3,0,0,1-4.017-1.834c-.279-.244-.569-.476-.848-.72-.255-.267-.511-.534-.755-.812-.22-.29-.464-.581-.662-.883s-.383-.627-.546-.952a6.576,6.576,0,0,1-.581-4.215.214.214,0,0,1,.255-.163.208.208,0,0,1,.139.1h0a27.83,27.83,0,0,0,2.09,3.112c.186.232.383.441.557.673l.592.627c.209.2.43.371.639.569l.673.522a9.919,9.919,0,0,0,3.065,1.451,8.431,8.431,0,0,0,3.413.22,7.889,7.889,0,0,0,3.181-1.219,10.5,10.5,0,0,0,2.473-2.334,11.915,11.915,0,0,0,1.7-3.007,17.9,17.9,0,0,0,.975-3.622h0a.21.21,0,0,1,.244-.174A.2.2,0,0,1,2021.115,1967.547Z" transform="translate(-2000.817 -1967.427)" fill="#494949"/>
        </g>
        <g id="Group_73" data-name="Group 73" transform="translate(19.781)">
          <path id="Path_28" data-name="Path 28" d="M2038.133,1964.907a7.328,7.328,0,0,1,.638,4.238c-.058.36-.139.731-.22,1.091-.116.348-.22.708-.36,1.057-.163.337-.314.685-.488,1.01-.2.313-.383.639-.6.952a10.233,10.233,0,0,1-3.379,2.926,11.982,11.982,0,0,1-2.055.894,9.242,9.242,0,0,1-1.068.3l-.534.116-.267.058c-.128.023-.267.035-.406.047l.116-.012c-.1.012-.22.023-.313.035l-.255.023-.522.047c-.093.011-.174.011-.255.023h-.267l-.546-.012a10.522,10.522,0,0,1-2.159-.3,10.31,10.31,0,0,1-3.924-1.869c-.29-.22-.557-.476-.824-.708-.256-.255-.488-.534-.732-.8-.22-.29-.441-.58-.65-.871q-.279-.47-.522-.941a6.54,6.54,0,0,1-.546-4.156.213.213,0,0,1,.395-.058h0a28.039,28.039,0,0,0,2.055,3.065c.186.221.371.441.546.662.2.2.383.418.58.615l.627.557c.22.174.441.348.662.511a10.259,10.259,0,0,0,3,1.463,9.826,9.826,0,0,0,1.649.313l.418.023.209.011c.07,0,.151-.011.22-.011l.441-.023.22-.011.174-.012.1-.011h.011a.225.225,0,0,1,.093-.012l.22-.046.441-.093a6.534,6.534,0,0,0,.848-.244,7.515,7.515,0,0,0,1.567-.755,10.143,10.143,0,0,0,2.542-2.334c.186-.221.337-.465.511-.7s.3-.488.465-.743l.406-.778c.116-.267.232-.546.36-.812a18.368,18.368,0,0,0,1-3.669h0a.21.21,0,0,1,.244-.174A.226.226,0,0,1,2038.133,1964.907Z" transform="translate(-2017.854 -1964.787)" fill="#494949"/>
        </g>
      </g>
      <g id="Group_75" data-name="Group 75" transform="translate(85.302 65.088)">
        <path id="Path_29" data-name="Path 29" d="M2028.03,1977.375l-1.927,11.9-7.384.79-5.248-10.438a7.38,7.38,0,1,1,14.56-2.252Z" transform="translate(-2013.47 -1970.78)" fill="#494949"/>
      </g>
      <g id="Group_76" data-name="Group 76" transform="translate(84.341 64.148)">
        <path id="Path_30" data-name="Path 30" d="M2018.886,1991.147a.968.968,0,0,1-.894-.522l-5.248-10.438a.96.96,0,0,1-.011-.836.925.925,0,0,1,.65-.522,6.91,6.91,0,0,0,5.225-7.756h0a.957.957,0,0,1,1.892-.29h0a6.856,6.856,0,0,0,7.559,5.782.942.942,0,0,1,.8.29.964.964,0,0,1,.255.813l-1.927,11.9a.961.961,0,0,1-.847.8l-7.384.79A.144.144,0,0,0,2018.886,1991.147Zm-3.936-10.809,4.447,8.835,6-.65,1.625-10.02a6.334,6.334,0,0,0-12.075,1.834Z" transform="translate(-2012.642 -1969.97)" fill="#494949"/>
      </g>
      <g id="Group_77" data-name="Group 77" transform="translate(89.926 76.492)">
        <path id="Path_31" data-name="Path 31" d="M2022.651,1992.907h0a3.7,3.7,0,0,1-4.284-3.019l-.859-4.946a3.7,3.7,0,0,1,3.019-4.284h0a3.7,3.7,0,0,1,4.284,3.019l.859,4.946A3.714,3.714,0,0,1,2022.651,1992.907Z" transform="translate(-2017.453 -1980.603)" fill="#ff48a0"/>
      </g>
      <g id="Group_78" data-name="Group 78" transform="translate(88.97 75.514)">
        <path id="Path_32" data-name="Path 32" d="M2022.342,1994.041a4.556,4.556,0,0,1-2.868-.847,4.664,4.664,0,0,1-1.916-3.019l-.859-4.946a4.667,4.667,0,1,1,9.2-1.6l.859,4.946a4.669,4.669,0,0,1-3.8,5.4h0A2.863,2.863,0,0,1,2022.342,1994.041Zm.441-1Zm-1.614-11.355c-.116,0-.232.023-.36.035a2.752,2.752,0,0,0-2.241,3.181l.859,4.946a2.722,2.722,0,0,0,1.126,1.777,2.81,2.81,0,0,0,2.055.464h0a2.752,2.752,0,0,0,2.241-3.181l-.859-4.946A2.749,2.749,0,0,0,2021.17,1981.687Z" transform="translate(-2016.63 -1979.76)" fill="#494949"/>
      </g>
      <g id="Group_79" data-name="Group 79" transform="translate(86.609 128.318)">
        <path id="Path_33" data-name="Path 33" d="M2014.6,2031.219a4.784,4.784,0,0,1,.023-.7c.012-.244.023-.476.047-.72.035-.476.081-.964.116-1.451s.047-.975.047-1.474-.023-1-.023-1.521h0a.124.124,0,0,1,.1-.116.143.143,0,0,1,.093.047,8.124,8.124,0,0,1,.7,1.428,8.918,8.918,0,0,1,.418,1.544,9.13,9.13,0,0,1,.163,1.591,6.166,6.166,0,0,1-.047.8,5.565,5.565,0,0,1-.163.813.746.746,0,0,1-.929.5.732.732,0,0,1-.522-.685Z" transform="translate(-2014.596 -2025.24)" fill="#494949"/>
      </g>
      <g id="Group_80" data-name="Group 80" transform="translate(91.258 127.97)">
        <path id="Path_34" data-name="Path 34" d="M2018.623,2030.617a5.875,5.875,0,0,1-.023-.65v-.673l.046-1.382c.012-.465.023-.929.012-1.4s-.023-.952-.023-1.451h0a.123.123,0,0,1,.1-.116.143.143,0,0,1,.093.046,8.722,8.722,0,0,1,1.149,2.775,8.059,8.059,0,0,1,.232,1.5c.011.255.011.511,0,.755a4.891,4.891,0,0,1-.116.778.763.763,0,0,1-.906.546.741.741,0,0,1-.557-.639Z" transform="translate(-2018.6 -2024.94)" fill="#494949"/>
      </g>
      <g id="Group_81" data-name="Group 81" transform="translate(109.102 118.035)">
        <path id="Path_35" data-name="Path 35" d="M2034.574,2021.685a2.8,2.8,0,0,1-.29-.638,3.172,3.172,0,0,1-.174-.65,7.208,7.208,0,0,1-.139-1.323,7.979,7.979,0,0,1,.36-2.613.108.108,0,0,1,.139-.07.1.1,0,0,1,.07.07h0c.139.418.255.824.383,1.219s.244.79.372,1.173.267.755.372,1.138c.058.186.116.371.162.569a3.539,3.539,0,0,1,.116.546l.011.1a.761.761,0,0,1-.65.836A.747.747,0,0,1,2034.574,2021.685Z" transform="translate(-2033.969 -2016.384)" fill="#494949"/>
      </g>
      <g id="Group_82" data-name="Group 82" transform="translate(113.738 117.321)">
        <path id="Path_36" data-name="Path 36" d="M2039.074,2021.169a2.556,2.556,0,0,1-.244-.313c-.07-.1-.128-.2-.186-.3a4.47,4.47,0,0,1-.29-.639,6.9,6.9,0,0,1-.325-1.347,7.733,7.733,0,0,1-.058-1.37,5.933,5.933,0,0,1,.22-1.347.119.119,0,0,1,.139-.081.105.105,0,0,1,.07.07h0c.162.418.29.824.441,1.219s.313.778.464,1.149.348.731.522,1.08c.081.174.174.348.244.534a1.833,1.833,0,0,1,.116.267,1.68,1.68,0,0,1,.093.244l.046.2a.74.74,0,0,1-.557.883A.774.774,0,0,1,2039.074,2021.169Z" transform="translate(-2037.962 -2015.768)" fill="#494949"/>
      </g>
      <g id="Group_85" data-name="Group 85" transform="translate(74.391 48.209)">
        <g id="Group_83" data-name="Group 83">
          <ellipse id="Ellipse_16" data-name="Ellipse 16" cx="5.097" cy="3.472" rx="5.097" ry="3.472" transform="translate(0 10.119) rotate(-83.033)" fill="#494949"/>
        </g>
        <g id="Group_84" data-name="Group 84" transform="translate(3.836 3.04)">
          <ellipse id="Ellipse_17" data-name="Ellipse 17" cx="1.486" cy="1.01" rx="1.486" ry="1.01" transform="translate(0 2.95) rotate(-83.033)" fill="#fff"/>
        </g>
      </g>
      <g id="Group_88" data-name="Group 88" transform="translate(94.835 45.125)">
        <g id="Group_86" data-name="Group 86">
          <ellipse id="Ellipse_18" data-name="Ellipse 18" cx="3.472" cy="5.097" rx="3.472" ry="5.097" transform="matrix(0.972, -0.236, 0.236, 0.972, 0, 1.641)" fill="#494949"/>
        </g>
        <g id="Group_87" data-name="Group 87" transform="translate(2.202 3.363)">
          <ellipse id="Ellipse_19" data-name="Ellipse 19" cx="1.01" cy="1.486" rx="1.01" ry="1.486" transform="matrix(0.972, -0.236, 0.236, 0.972, 0, 0.477)" fill="#fff"/>
        </g>
      </g>
      <g id="Group_89" data-name="Group 89" transform="translate(80.582 14.896)">
        <path id="Path_37" data-name="Path 37" d="M2009.875,1941.308s-2.485-8.8,3.971-13.758c0,0-2.148,4.574.441,6.1,0,0-.325-.859,2.856-2.705,0,0-.65,4.795,1.126,7.373C2020.533,1941.587,2009.875,1941.308,2009.875,1941.308Z" transform="translate(-2009.405 -1927.55)" fill="#bd6825"/>
      </g>
      <path id="Path_38" data-name="Path 38" d="M2008.569,1939.841l-.639-1.556.778-.325c.3-.128.36-1.266.406-2.183.128-2.531.313-6.351,4.574-8.685l2.264-1.242-1.1,2.345c-.011.035-1.242,2.763-.534,4.3a10.754,10.754,0,0,1,2.647-2l1.149-.673.116,1.335c0,.012.1,1.266.279,2.624a18.761,18.761,0,0,0,.476,2.775h.371v1.683h-.836a1.086,1.086,0,0,1-1-.778,4.857,4.857,0,0,1-.256-.836c-.128-.534-.244-1.277-.371-2.194-.081-.615-.151-1.231-.209-1.742a4.308,4.308,0,0,0-1.277,1.173l.755,2.02-2.043-1.208c-.964-.569-2.02-1.8-1.6-4.481a.07.07,0,0,1,.012-.047c-1.532,1.765-1.637,3.913-1.73,5.736-.081,1.6.151,3.077-1.138,3.611Z" transform="translate(-1929.06 -1912.928)" fill="#494949"/>
      <g id="Group_90" data-name="Group 90" transform="translate(49.727 46.542)">
        <path id="Path_39" data-name="Path 39" d="M1982.83,1965.155s8.847-12.435,13.387-10.043-.952,24.15-.952,24.15Z" transform="translate(-1982.83 -1954.807)" fill="#a5a8a7"/>
      </g>
      <g id="Group_91" data-name="Group 91" transform="translate(16.197 39.816)">
        <path id="Path_40" data-name="Path 40" d="M1970.564,1963.151l-16.615,8.812s.557-4.853,1.66-10.1c1.265-5.991,3.251-12.493,5.968-12.83,2.554-.313,4.807,3.239,6.42,6.862A54.324,54.324,0,0,1,1970.564,1963.151Z" transform="translate(-1953.95 -1949.013)" fill="#a5a8a7"/>
      </g>
      <g id="Group_92" data-name="Group 92" transform="translate(14.316 87.008)">
        <path id="Path_41" data-name="Path 41" d="M1999.526,2032.456a65.435,65.435,0,0,1-47.2-28.318c.476-.662.964-1.347,1.44-2.067,1.208-1.788,2.438-3.727,3.564-5.771a51.6,51.6,0,0,0,3.146-6.641l29.409,2.636,1.51,6.711,2.311,10.264a25.043,25.043,0,0,1,5.875,11.97A28.023,28.023,0,0,1,1999.526,2032.456Z" transform="translate(-1952.33 -1989.66)" fill="#a5a8a7"/>
      </g>
      <g id="Group_93" data-name="Group 93" transform="translate(14.316 99.42)" opacity="0.2">
        <path id="Path_42" data-name="Path 42" d="M1999.526,2030.734a65.435,65.435,0,0,1-47.2-28.318c.476-.662.964-1.347,1.44-2.067a5.757,5.757,0,0,0,.36.627,14.345,14.345,0,0,0,7.442,5.631c2.833.894,6.014.94,8.452,2.635,2.485,1.718,3.7,4.853,6.223,6.537,3.216,2.136,7.454,1.312,11.3,1.01a2.523,2.523,0,0,1,1.5.2,3.28,3.28,0,0,1,.964,1.1,6.894,6.894,0,0,0,9.544,1.382l.058.058A28.44,28.44,0,0,1,1999.526,2030.734Z" transform="translate(-1952.33 -2000.35)" fill="#494949"/>
      </g>
      <g id="Group_94" data-name="Group 94" transform="translate(13.351 86.065)">
        <path id="Path_43" data-name="Path 43" d="M1999.66,2033.55h-.1a66.3,66.3,0,0,1-47.893-28.736.962.962,0,0,1,.011-1.091,80.764,80.764,0,0,0,4.958-7.744,50.753,50.753,0,0,0,3.088-6.513.962.962,0,0,1,.975-.615l29.409,2.635a.951.951,0,0,1,.848.743l3.773,16.719c1.347,1.463,8.638,10.1,5.864,23.836A.946.946,0,0,1,1999.66,2033.55Zm-46.035-29.27a64.424,64.424,0,0,0,45.257,27.261,25.528,25.528,0,0,0-5.7-21.456.922.922,0,0,1-.255-.465l-3.669-16.3-28-2.508a55.4,55.4,0,0,1-2.937,6.084A82.223,82.223,0,0,1,1953.625,2004.281Z" transform="translate(-1951.499 -1988.847)" fill="#494949"/>
      </g>
      <g id="Group_95" data-name="Group 95" transform="translate(22.327 108.207)">
        <path id="Path_44" data-name="Path 44" d="M1972.257,2020.181a7.722,7.722,0,0,1-2.833,5.283c-5.735,4.308-8.951-6.444-7.349-11.947l-2.844-2.659s.058-.07.151-.186a8.381,8.381,0,0,1,7.4-2.659C1970.19,2008.524,1972.988,2014.968,1972.257,2020.181Z" transform="translate(-1959.23 -2007.918)" fill="#a5a8a7"/>
      </g>
      <g id="Group_96" data-name="Group 96" transform="translate(22.327 110.96)" opacity="0.2">
        <path id="Path_45" data-name="Path 45" d="M1972.257,2019.8a7.722,7.722,0,0,1-2.833,5.283c-5.735,4.308-8.951-6.444-7.349-11.947l-2.844-2.659s.058-.07.151-.186a7.453,7.453,0,0,1,5.1,2.334s-1.532,8.615,2.264,9.846C1968.983,2023.178,1970.98,2021.4,1972.257,2019.8Z" transform="translate(-1959.23 -2010.29)" fill="#494949"/>
      </g>
      <g id="Group_97" data-name="Group 97" transform="translate(21.471 107.337)">
        <path id="Path_46" data-name="Path 46" d="M1966.977,2027.442a3.948,3.948,0,0,1-2.287-.743c-3.1-2.148-4.424-8.627-3.46-12.783l-2.461-2.31a.86.86,0,0,1-.093-1.161,9.23,9.23,0,0,1,8.371-3.17c2.5.372,4.783,3.274,5.817,7.373.975,3.878.755,8.963-2.8,11.634A5.207,5.207,0,0,1,1966.977,2027.442Zm-6.4-16.51,2.206,2.067a.869.869,0,0,1,.244.871c-1.1,3.8.279,9.753,2.647,11.4.987.685,2.09.557,3.344-.383,2.879-2.159,2.961-6.641,2.16-9.822-.836-3.321-2.647-5.829-4.4-6.084A7.392,7.392,0,0,0,1960.58,2010.932Z" transform="translate(-1958.493 -2007.169)" fill="#494949"/>
      </g>
      <g id="Group_98" data-name="Group 98" transform="translate(39.493 113.282)">
        <path id="Path_47" data-name="Path 47" d="M1990.275,2027.941l-6.606-1.66s-2.531,4.7-6.595,2.542c-1.567-.824-2.578-2.949-2.926-5.41-.72-5.109,1.44-11.657,7.465-11.088,4.691.441,6.885,6.2,7.872,10.6A35.847,35.847,0,0,1,1990.275,2027.941Z" transform="translate(-1974.016 -2012.29)" fill="#a5a8a7"/>
      </g>
      <g id="Group_99" data-name="Group 99" transform="translate(39.626 123.128)" opacity="0.2">
        <path id="Path_48" data-name="Path 48" d="M1990.257,2026.575l-6.606-1.66s-2.531,4.7-6.595,2.542c-1.567-.824-2.578-2.949-2.926-5.41.07.1,2.252,3.239,4.818,3.228,2.612-.012,5.375-2.09,5.84-4.5,0,0,1.451,3.623,4.679.79h0A35.847,35.847,0,0,1,1990.257,2026.575Z" transform="translate(-1974.13 -2020.77)" fill="#494949"/>
      </g>
      <g id="Group_100" data-name="Group 100" transform="translate(38.644 112.42)">
        <path id="Path_49" data-name="Path 49" d="M1979.305,2030.383a5.37,5.37,0,0,1-2.508-.662c-3.344-1.765-4.238-7.814-2.949-12.145,1.242-4.168,4.145-6.351,7.976-5.991,8.29.778,9.393,15.778,9.439,16.417a.824.824,0,0,1-.313.72.869.869,0,0,1-.766.174l-5.979-1.509A6.235,6.235,0,0,1,1979.305,2030.383Zm1.718-17.1c-3.541,0-4.969,2.961-5.515,4.783-1.2,3.994-.174,8.905,2.1,10.113,3.251,1.718,5.341-2.032,5.434-2.194a.874.874,0,0,1,.975-.43l5.4,1.359c-.418-3.437-2.113-13.085-7.744-13.607C1981.442,2013.292,1981.232,2013.281,1981.023,2013.281Z" transform="translate(-1973.284 -2011.547)" fill="#494949"/>
      </g>
      <g id="Group_101" data-name="Group 101" transform="translate(47.885 121.932)">
        <path id="Path_50" data-name="Path 50" d="M1981.448,2025c.128-.163.267-.371.395-.557s.255-.395.383-.6a12.111,12.111,0,0,0,.673-1.277,6.693,6.693,0,0,0,.685-2.822,5.9,5.9,0,0,1,.29,1.5,9.925,9.925,0,0,1-.047,1.556,13.8,13.8,0,0,1-.255,1.544c-.058.255-.116.511-.186.766s-.139.5-.244.778l-.012.035a.973.973,0,0,1-1.834-.65A.692.692,0,0,1,1981.448,2025Z" transform="translate(-1981.243 -2019.74)" fill="#494949"/>
      </g>
      <g id="Group_104" data-name="Group 104" transform="translate(48.768 45.582)">
        <g id="Group_102" data-name="Group 102">
          <path id="Path_51" data-name="Path 51" d="M1995.4,1980.347a.971.971,0,0,1-.72-.325l-12.435-14.107a.945.945,0,0,1-.058-1.184,55.428,55.428,0,0,1,5.085-6.037c4.017-4.063,7.222-5.515,9.521-4.3,1.475.778,3.262,3.065,1.73,13.956-.8,5.724-2.183,11.227-2.206,11.285a.945.945,0,0,1-.7.7A1.322,1.322,0,0,1,1995.4,1980.347Zm-11.2-15.117,10.7,12.145c.464-2.055,1.231-5.643,1.742-9.312,1.4-10.02-.2-11.7-.732-11.982C1993.4,1954.77,1987.712,1960.459,1984.194,1965.231Z" transform="translate(-1982.004 -1953.98)" fill="#494949"/>
        </g>
        <g id="Group_103" data-name="Group 103" transform="translate(4.781 5.282)">
          <path id="Path_52" data-name="Path 52" d="M1992.587,1972.207a.934.934,0,0,1-.708-.313l-5.5-5.979a.946.946,0,0,1-.093-1.173,36.6,36.6,0,0,1,2.461-3.228c2.09-2.427,3.646-3.332,4.888-2.868,1.358.511,1.649,2.589.964,7.164-.418,2.844-1.068,5.561-1.091,5.677a.964.964,0,0,1-.685.708C1992.749,1972.2,1992.668,1972.207,1992.587,1972.207Zm-4.284-7.024,3.75,4.075c.882-4.191,1.242-7.941.836-8.824C1992.134,1960.527,1990.079,1962.664,1988.3,1965.183Z" transform="translate(-1986.121 -1958.529)" fill="#494949"/>
        </g>
      </g>
      <g id="Group_105" data-name="Group 105" transform="translate(48.768 45.582)">
        <path id="Path_53" data-name="Path 53" d="M1995.4,1980.347a.971.971,0,0,1-.72-.325l-12.435-14.107a.945.945,0,0,1-.058-1.184,55.428,55.428,0,0,1,5.085-6.037c4.017-4.063,7.222-5.515,9.521-4.3,1.475.778,3.262,3.065,1.73,13.956-.8,5.724-2.183,11.227-2.206,11.285a.945.945,0,0,1-.7.7A1.322,1.322,0,0,1,1995.4,1980.347Zm-11.2-15.117,10.7,12.145c.464-2.055,1.231-5.643,1.742-9.312,1.4-10.02-.2-11.7-.732-11.982C1993.4,1954.77,1987.712,1960.459,1984.194,1965.231Z" transform="translate(-1982.004 -1953.98)" fill="#494949"/>
      </g>
      <g id="Group_108" data-name="Group 108" transform="translate(15.248 38.855)">
        <g id="Group_106" data-name="Group 106">
          <path id="Path_54" data-name="Path 54" d="M1954.082,1973.048a.994.994,0,0,1-.534-.162.941.941,0,0,1-.406-.894c.012-.058.65-5.689,1.916-11.332,2.4-10.728,4.888-12.238,6.537-12.446,2.578-.325,5.062,2.159,7.4,7.384a55.588,55.588,0,0,1,2.635,7.442.954.954,0,0,1-.476,1.091l-16.615,8.812A1,1,0,0,1,1954.082,1973.048Zm7.942-22.954a1.141,1.141,0,0,0-.2.011c-.592.07-2.682,1.08-4.911,10.949-.813,3.611-1.37,7.233-1.66,9.323l14.3-7.582C1967.991,1957.224,1964.8,1950.095,1962.023,1950.095Z" transform="translate(-1953.133 -1948.186)" fill="#494949"/>
        </g>
        <g id="Group_107" data-name="Group 107" transform="translate(4.62 5.555)">
          <path id="Path_55" data-name="Path 55" d="M1958.073,1966.1a.987.987,0,0,1-.557-.174.951.951,0,0,1-.395-.906c.012-.116.372-2.879.975-5.689.987-4.516,1.974-6.362,3.437-6.362h0c1.324,0,2.461,1.4,3.553,4.412a35.026,35.026,0,0,1,1.161,3.889.945.945,0,0,1-.5,1.068l-7.256,3.657A.86.86,0,0,1,1958.073,1966.1Zm3.53-11.181c-.7.7-1.683,4.331-2.334,8.545l4.946-2.485C1963.46,1958.02,1962.3,1955.315,1961.6,1954.921Z" transform="translate(-1957.113 -1952.97)" fill="#494949"/>
        </g>
      </g>
      <g id="Group_109" data-name="Group 109" transform="translate(15.248 38.855)">
        <path id="Path_56" data-name="Path 56" d="M1954.082,1973.048a.994.994,0,0,1-.534-.162.941.941,0,0,1-.406-.894c.012-.058.65-5.689,1.916-11.332,2.4-10.728,4.888-12.238,6.537-12.446,2.578-.325,5.062,2.159,7.4,7.384a55.588,55.588,0,0,1,2.635,7.442.954.954,0,0,1-.476,1.091l-16.615,8.812A1,1,0,0,1,1954.082,1973.048Zm7.942-22.954a1.141,1.141,0,0,0-.2.011c-.592.07-2.682,1.08-4.911,10.949-.813,3.611-1.37,7.233-1.66,9.323l14.3-7.582C1967.991,1957.224,1964.8,1950.095,1962.023,1950.095Z" transform="translate(-1953.133 -1948.186)" fill="#494949"/>
      </g>
      <g id="Group_112" data-name="Group 112" transform="translate(20.829 45.373)">
        <g id="Group_110" data-name="Group 110" transform="translate(33.682 6.446)">
          <path id="Path_57" data-name="Path 57" d="M1986.95,1965.143s4.307-6.456,6.212-5.736-.72,11.715-.72,11.715Z" transform="translate(-1986.95 -1959.352)" fill="#fa509c"/>
        </g>
        <g id="Group_111" data-name="Group 111">
          <path id="Path_58" data-name="Path 58" d="M1965.2,1961.358s-1.753-7.558-3.8-7.558-3.46,11.216-3.46,11.216Z" transform="translate(-1957.94 -1953.8)" fill="#fa509c"/>
        </g>
      </g>
      <g id="Group_113" data-name="Group 113" transform="translate(53.892 51.195)">
        <path id="Path_59" data-name="Path 59" d="M1992.539,1971.825a.606.606,0,0,1-.453-.2l-5.5-5.979a.612.612,0,0,1-.058-.766c1.068-1.614,4.749-6.8,6.955-5.979.824.314,1.556,1.359.755,6.792-.418,2.833-1.08,5.619-1.091,5.643a.623.623,0,0,1-.441.453A.457.457,0,0,1,1992.539,1971.825Zm-4.714-6.653,4.366,4.749c.22-1.022.534-2.589.778-4.191.766-5.085.058-5.654.058-5.654C1992.226,1959.761,1989.706,1962.443,1987.825,1965.172Z" transform="translate(-1986.417 -1958.814)" fill="#494949"/>
      </g>
      <g id="Group_114" data-name="Group 114" transform="translate(20.207 44.746)">
        <path id="Path_60" data-name="Path 60" d="M1958.026,1965.718a.581.581,0,0,1-.36-.116.6.6,0,0,1-.255-.581c0-.023.36-2.868.975-5.666,1.173-5.364,2.218-6.1,3.1-6.1h0c2.357,0,3.959,6.154,4.389,8.046a.617.617,0,0,1-.325.7l-7.256,3.657A.647.647,0,0,1,1958.026,1965.718Zm3.46-11.216s-.859.279-1.939,5.318c-.337,1.591-.592,3.169-.755,4.2l5.759-2.9C1963.762,1957.9,1962.357,1954.5,1961.486,1954.5Z" transform="translate(-1957.404 -1953.26)" fill="#494949"/>
      </g>
      <g id="Group_115" data-name="Group 115" transform="translate(16.197 46.697)" opacity="0.2">
        <path id="Path_61" data-name="Path 61" d="M1970.564,1962.2l-16.615,8.812s.557-4.853,1.66-10.1c2.961-2.183,7.709-5.178,12.388-5.968A54.324,54.324,0,0,1,1970.564,1962.2Z" transform="translate(-1953.95 -1954.94)" fill="#494949"/>
      </g>
      <g id="Group_116" data-name="Group 116" transform="translate(50.087 50.273)" opacity="0.2">
        <path id="Path_62" data-name="Path 62" d="M1983.14,1963.941l12.528,14.025s1.173-4.749,1.951-10.055c-2.02-3.065-5.434-7.535-9.555-9.892A57.062,57.062,0,0,0,1983.14,1963.941Z" transform="translate(-1983.14 -1958.02)" fill="#494949"/>
      </g>
      <g id="Group_117" data-name="Group 117" transform="translate(11.02 48.845)">
        <path id="Path_63" data-name="Path 63" d="M2002.271,1987.232c-2.148,14.5-14.942,19.784-29.444,17.625s-25.218-10.914-23.058-25.415a26.539,26.539,0,1,1,52.5,7.791Z" transform="translate(-1949.491 -1956.79)" fill="#a5a8a7"/>
      </g>
      <g id="Group_118" data-name="Group 118" transform="translate(11.68 73.238)" opacity="0.2">
        <path id="Path_64" data-name="Path 64" d="M2002.841,1983.93c-2.148,14.5-14.942,19.784-29.444,17.625-13.932-2.067-24.37-10.252-23.256-23.755.964,11.227,10.693,18.066,23.256,19.923,14.5,2.148,27.3-3.135,29.444-17.625.1-.673.174-1.335.221-2A26.69,26.69,0,0,1,2002.841,1983.93Z" transform="translate(-1950.06 -1977.8)" fill="#494949"/>
      </g>
      <g id="Group_119" data-name="Group 119" transform="translate(10.074 47.894)">
        <path id="Path_65" data-name="Path 65" d="M1979.053,2006.417a43.2,43.2,0,0,1-6.235-.476c-7.709-1.149-14.049-4.029-18.31-8.348-4.691-4.749-6.606-11.03-5.55-18.159a27.5,27.5,0,1,1,54.395,8.069h0c-1.057,7.129-4.714,12.574-10.589,15.755A28.5,28.5,0,0,1,1979.053,2006.417Zm-2.926-48.531a25.626,25.626,0,0,0-25.288,21.828c-2.252,15.175,10.02,22.513,22.257,24.335s26.112-1.649,28.364-16.823a25.609,25.609,0,0,0-21.549-29.061A26.307,26.307,0,0,0,1976.128,1957.885Zm26.274,29.479Z" transform="translate(-1948.677 -1955.971)" fill="#494949"/>
      </g>
      <g id="Group_122" data-name="Group 122" transform="translate(23.603 76.537)">
        <g id="Group_120" data-name="Group 120">
          <path id="Path_66" data-name="Path 66" d="M1961.4,1980.779a15.414,15.414,0,0,0,.79,1.951,9.833,9.833,0,0,0,.929,1.521,6.061,6.061,0,0,0,1.208,1.231,3.628,3.628,0,0,0,1.614.673l.186.023.232.023a2.8,2.8,0,0,0,.441,0,4.3,4.3,0,0,0,.859-.139,5.934,5.934,0,0,0,1.567-.7,7.634,7.634,0,0,0,1.358-1.115c.441-.43.882-.894,1.486-1.51h0a.221.221,0,0,1,.313,0,.242.242,0,0,1,.047.07,3.257,3.257,0,0,1-.128,2.554,5.249,5.249,0,0,1-1.7,2.009,5.89,5.89,0,0,1-2.45,1.033,6.386,6.386,0,0,1-1.323.1,5.8,5.8,0,0,1-.65-.035l-.313-.035-.162-.023-.2-.035a8,8,0,0,1-2.45-.94,5.648,5.648,0,0,1-1.927-1.811,4.818,4.818,0,0,1-.8-2.5,3.7,3.7,0,0,1,.72-2.415.218.218,0,0,1,.3-.035.225.225,0,0,1,.046.093Z" transform="translate(-1960.329 -1980.641)" fill="#494949"/>
        </g>
        <g id="Group_121" data-name="Group 121" transform="translate(11.006 2.009)">
          <path id="Path_67" data-name="Path 67" d="M1970.89,1982.521a17,17,0,0,0,.778,1.927,9,9,0,0,0,.906,1.5,6.136,6.136,0,0,0,1.173,1.219,3.5,3.5,0,0,0,1.556.7l.081.023h.012l.116.011.232.023c.151.023.3,0,.453.012a4.394,4.394,0,0,0,.871-.128,5.573,5.573,0,0,0,1.591-.7,7.35,7.35,0,0,0,1.382-1.126c.453-.441.894-.906,1.509-1.521h0a.221.221,0,0,1,.313,0,.241.241,0,0,1,.047.07,3.322,3.322,0,0,1-.139,2.6,5.315,5.315,0,0,1-1.741,2.02,5.83,5.83,0,0,1-2.508,1,7.407,7.407,0,0,1-1.347.081,4.144,4.144,0,0,1-.662-.058l-.325-.046-.163-.023a1.953,1.953,0,0,1-.255-.058l.081.023a8.285,8.285,0,0,1-2.4-.964,5.691,5.691,0,0,1-1.869-1.811,4.944,4.944,0,0,1-.766-2.461,3.668,3.668,0,0,1,.72-2.38.219.219,0,0,1,.3-.035.226.226,0,0,1,.058.1Z" transform="translate(-1969.808 -1982.371)" fill="#494949"/>
        </g>
      </g>
      <g id="Group_123" data-name="Group 123" transform="translate(10.074 47.894)">
        <path id="Path_68" data-name="Path 68" d="M1979.053,2006.417a43.2,43.2,0,0,1-6.235-.476c-7.709-1.149-14.049-4.029-18.31-8.348-4.691-4.749-6.606-11.03-5.55-18.159a27.5,27.5,0,1,1,54.395,8.069h0c-1.057,7.129-4.714,12.574-10.589,15.755A28.5,28.5,0,0,1,1979.053,2006.417Zm-2.926-48.531a25.626,25.626,0,0,0-25.288,21.828c-2.252,15.175,10.02,22.513,22.257,24.335s26.112-1.649,28.364-16.823a25.609,25.609,0,0,0-21.549-29.061A26.307,26.307,0,0,0,1976.128,1957.885Zm26.274,29.479Z" transform="translate(-1948.677 -1955.971)" fill="#494949"/>
      </g>
      <g id="Group_124" data-name="Group 124" transform="translate(33.243 76.432)">
        <path id="Path_69" data-name="Path 69" d="M1969.3,1980.562l4.3.778a.567.567,0,0,1,.244,1.01l-2.636,2.009a.571.571,0,0,1-.836-.162l-1.66-2.8A.564.564,0,0,1,1969.3,1980.562Z" transform="translate(-1968.632 -1980.551)" fill="#494949"/>
      </g>
      <g id="Group_128" data-name="Group 128" transform="translate(29.362 79.448)">
        <g id="Group_125" data-name="Group 125" transform="translate(0.827 0.815)">
          <path id="Path_70" data-name="Path 70" d="M1974.29,1988.633c-.023.163-.058.325-.093.488a13.5,13.5,0,0,1-1.823,4.656c-1.091,1.66-2.438,2.589-3.692,2.334s-2.136-1.625-2.5-3.553a13.466,13.466,0,0,1,.116-5.027l.07-.348a4.026,4.026,0,1,1,7.918,1.451Z" transform="translate(-1966.002 -1983.85)" fill="#494949"/>
        </g>
        <g id="Group_126" data-name="Group 126" transform="translate(1.011 7.985)">
          <path id="Path_71" data-name="Path 71" d="M1972.348,1992.782c-1.091,1.66-2.438,2.589-3.692,2.334s-2.136-1.625-2.5-3.553a3.4,3.4,0,0,1,6.188,1.219Z" transform="translate(-1966.16 -1990.026)" fill="#ff48a0"/>
        </g>
        <g id="Group_127" data-name="Group 127">
          <path id="Path_72" data-name="Path 72" d="M1968.924,1997.083a2.5,2.5,0,0,1-.29-.047c-1.556-.313-2.693-1.846-3.146-4.215a14.362,14.362,0,0,1,.116-5.341,3.313,3.313,0,0,1,.081-.36.816.816,0,0,1,.929-.639,3.28,3.28,0,0,0,3.75-2.659h0a.827.827,0,0,1,1.625.3h0a3.274,3.274,0,0,0,2.577,3.82.83.83,0,0,1,.65.941c-.023.174-.058.348-.093.522a14.088,14.088,0,0,1-1.939,4.946C1971.931,1996.247,1970.4,1997.222,1968.924,1997.083Zm-1.765-8.905a12.445,12.445,0,0,0-.047,4.342c.313,1.637,1,2.729,1.846,2.9s1.916-.569,2.844-1.985a12.5,12.5,0,0,0,1.649-4.11,4.883,4.883,0,0,1-2.763-2.647A4.941,4.941,0,0,1,1967.16,1988.178Z" transform="translate(-1965.289 -1983.148)" fill="#494949"/>
        </g>
      </g>
      <g id="Group_130" data-name="Group 130" transform="translate(1.335 73.114)">
        <g id="Group_129" data-name="Group 129">
          <path id="Path_73" data-name="Path 73" d="M1960.5,1979.954c-.766-.163-6.2-.743-7.663-1.08-1.277-.29-7.814-.046-11.692.325a61.716,61.716,0,0,1,11.97-1.486C1953.91,1977.771,1959.982,1979.362,1960.5,1979.954Z" transform="translate(-1941.15 -1977.693)" fill="#494949"/>
        </g>
      </g>
      <g id="Group_131" data-name="Group 131" transform="translate(41.862 126.321)">
        <path id="Path_74" data-name="Path 74" d="M1976.421,2027.41a1.232,1.232,0,0,0-.093-.151.618.618,0,0,1-.058-.128,1.608,1.608,0,0,1-.093-.255,3.777,3.777,0,0,1-.1-.5,4.648,4.648,0,0,1,.023-.987,5.017,5.017,0,0,1,.209-.94,4.963,4.963,0,0,1,.383-.883.093.093,0,0,1,.128-.035.114.114,0,0,1,.047.058h0c.035.151.07.313.093.464s.058.3.081.453c.058.29.1.581.174.859l.186.8c.035.128.058.255.081.383l.035.186a.2.2,0,0,1,.011.081c0,.023.012.058,0,.058a.618.618,0,0,1-.279.824A.633.633,0,0,1,1976.421,2027.41Z" transform="translate(-1976.055 -2023.52)" fill="#494949"/>
      </g>
      <g id="Group_132" data-name="Group 132" transform="translate(45.271 126.367)">
        <path id="Path_75" data-name="Path 75" d="M1979.233,2027.461a2.9,2.9,0,0,1-.232-1,5.608,5.608,0,0,1,.035-.987,5.542,5.542,0,0,1,.569-1.869.093.093,0,0,1,.128-.035.076.076,0,0,1,.047.058h0c.081.313.128.627.2.929s.116.592.174.883.128.569.174.859a5.407,5.407,0,0,1,.093.824v.093a.622.622,0,0,1-.627.615A.666.666,0,0,1,1979.233,2027.461Z" transform="translate(-1978.992 -2023.56)" fill="#494949"/>
      </g>
      <g id="Group_133" data-name="Group 133" transform="translate(26.348 121.34)">
        <path id="Path_76" data-name="Path 76" d="M1962.933,2022.26c-.046.023-.012-.012-.012-.023l.035-.07a1.694,1.694,0,0,0,.081-.151c.058-.1.128-.209.186-.325.128-.232.279-.476.406-.731s.267-.534.395-.813c.07-.139.128-.279.2-.429s.139-.29.22-.441h0a.093.093,0,0,1,.128-.035.117.117,0,0,1,.047.058,4.712,4.712,0,0,1,.128.987,4.861,4.861,0,0,1-.058,1,3.454,3.454,0,0,1-.267,1,2.775,2.775,0,0,1-.267.476c-.058.081-.116.151-.186.232a1.085,1.085,0,0,0-.116.116,1.75,1.75,0,0,1-.174.139.616.616,0,0,1-.871-.116A.649.649,0,0,1,1962.933,2022.26Z" transform="translate(-1962.693 -2019.23)" fill="#494949"/>
      </g>
      <g id="Group_134" data-name="Group 134" transform="translate(28.984 122.907)">
        <path id="Path_77" data-name="Path 77" d="M1965.308,2023.866c-.035.011,0-.023.012-.035l.058-.07.128-.151c.081-.1.174-.22.267-.337a8.539,8.539,0,0,0,.534-.79c.174-.279.337-.58.5-.894l.244-.476c.081-.163.163-.325.255-.488h0a.093.093,0,0,1,.128-.035.1.1,0,0,1,.046.07c.023.186.035.371.047.557a4.71,4.71,0,0,1-.012.569,6.336,6.336,0,0,1-.186,1.126,3.747,3.747,0,0,1-.453,1.1,2.263,2.263,0,0,1-.395.5,2.329,2.329,0,0,1-.256.221c-.046.035-.1.07-.151.1a2.3,2.3,0,0,1-.209.116.625.625,0,0,1-.836-.279A.6.6,0,0,1,1965.308,2023.866Z" transform="translate(-1964.964 -2020.58)" fill="#494949"/>
      </g>
      <g id="Group_137" data-name="Group 137" transform="translate(24.333 63.188)">
        <g id="Group_135" data-name="Group 135">
          <ellipse id="Ellipse_20" data-name="Ellipse 20" cx="4.783" cy="3.263" rx="4.783" ry="3.263" transform="matrix(0.282, -0.96, 0.96, 0.282, 0, 9.179)" fill="#494949"/>
        </g>
        <g id="Group_136" data-name="Group 136" transform="translate(4.173 3.257)">
          <ellipse id="Ellipse_21" data-name="Ellipse 21" cx="1.393" cy="0.952" rx="1.393" ry="0.952" transform="matrix(0.282, -0.96, 0.96, 0.282, 0, 2.674)" fill="#fff"/>
        </g>
      </g>
      <g id="Group_140" data-name="Group 140" transform="translate(44.203 66.888)">
        <g id="Group_138" data-name="Group 138">
          <ellipse id="Ellipse_22" data-name="Ellipse 22" cx="4.783" cy="3.263" rx="4.783" ry="3.263" transform="translate(0 9.478) rotate(-82.195)" fill="#494949"/>
        </g>
        <g id="Group_139" data-name="Group 139" transform="translate(2.095 2.709)">
          <ellipse id="Ellipse_23" data-name="Ellipse 23" cx="1.393" cy="0.952" rx="1.393" ry="0.952" transform="translate(0 2.761) rotate(-82.195)" fill="#fff"/>
        </g>
      </g>
      <g id="Group_142" data-name="Group 142" transform="translate(0 77.982)">
        <g id="Group_141" data-name="Group 141">
          <path id="Path_78" data-name="Path 78" d="M1959.25,1983.005c-.79-.046-6.246.186-7.732.07-1.3-.1-5.817.43-11.518,2.055a60.742,60.742,0,0,1,11.622-3.24C1952.4,1981.821,1958.635,1982.494,1959.25,1983.005Z" transform="translate(-1940 -1981.886)" fill="#494949"/>
        </g>
      </g>
      <g id="Group_144" data-name="Group 144" transform="translate(0.581 82.281)">
        <g id="Group_143" data-name="Group 143">
          <path id="Path_79" data-name="Path 79" d="M1958.577,1985.66c-.766.163-5.991,1.777-7.466,2.043a58.342,58.342,0,0,0-10.612,4.923c.511-.592,7.918-5.248,10.414-6.1C1951.658,1986.275,1957.857,1985.323,1958.577,1985.66Z" transform="translate(-1940.5 -1985.589)" fill="#494949"/>
        </g>
      </g>
      <g id="Group_146" data-name="Group 146" transform="translate(54.244 80.414)">
        <g id="Group_145" data-name="Group 145">
          <path id="Path_80" data-name="Path 80" d="M1986.72,1984.1c.778.116,6.072,1.463,7.558,1.649,1.3.163,7.349,2.67,10.844,4.365a62.235,62.235,0,0,0-10.7-5.561C1993.663,1984.351,1987.417,1983.724,1986.72,1984.1Z" transform="translate(-1986.72 -1983.981)" fill="#494949"/>
        </g>
      </g>
      <g id="Group_148" data-name="Group 148" transform="translate(54.302 84.504)">
        <g id="Group_147" data-name="Group 147">
          <path id="Path_81" data-name="Path 81" d="M1986.77,1987.534c.755.232,5.782,2.345,7.221,2.752,1.254.36,5.294,2.427,10.078,5.933-.441-.639-7.373-5.991-9.776-7.082C1993.6,1988.8,1987.513,1987.267,1986.77,1987.534Z" transform="translate(-1986.77 -1987.503)" fill="#494949"/>
        </g>
      </g>
      <g id="Group_150" data-name="Group 150" transform="translate(53.721 87.785)">
        <g id="Group_149" data-name="Group 149">
          <path id="Path_82" data-name="Path 82" d="M1986.27,1990.33c.662.418,4.992,3.739,6.281,4.5a57.85,57.85,0,0,1,8.232,8.3,62.3,62.3,0,0,0-7.64-9.346C1992.54,1993.3,1987.059,1990.26,1986.27,1990.33Z" transform="translate(-1986.27 -1990.329)" fill="#494949"/>
        </g>
      </g>
    </g>
  </g>
</svg>
